<svg xmlns="http://www.w3.org/2000/svg" version="1.1" xmlns:xlink="http://www.w3.org/1999/xlink" xmlns:svgjs="http://svgjs.com/svgjs" width="1440" height="560" preserveAspectRatio="none" viewBox="0 0 1440 560"><g mask="url(&quot;#SvgjsMask2399&quot;)" fill="none"><rect width="1440" height="560" x="0" y="0" fill="url(#SvgjsLinearGradient2400)"></rect><path d="M1440 0L1154.81 0L1440 27.31z" fill="rgba(255, 255, 255, .1)"></path><path d="M1154.81 0L1440 27.31L1440 39.93L1106.95 0z" fill="rgba(255, 255, 255, .075)"></path><path d="M1106.95 0L1440 39.93L1440 350.11L857.6800000000001 0z" fill="rgba(255, 255, 255, .05)"></path><path d="M857.68 0L1440 350.11L1440 468.85L580 0z" fill="rgba(255, 255, 255, .025)"></path><path d="M0 560L632.59 560L0 282.46z" fill="rgba(0, 0, 0, .1)"></path><path d="M0 282.46L632.59 560L717.6600000000001 560L0 198.91999999999996z" fill="rgba(0, 0, 0, .075)"></path><path d="M0 198.91999999999996L717.6600000000001 560L726.5200000000001 560L0 125.85999999999996z" fill="rgba(0, 0, 0, .05)"></path><path d="M0 125.85999999999996L726.5200000000001 560L990.2800000000001 560L0 50.64999999999996z" fill="rgba(0, 0, 0, .025)"></path></g><defs><mask id="SvgjsMask2399"><rect width="1440" height="560" fill="#ffffff"></rect></mask><linearGradient x1="15.28%" y1="139.29%" x2="84.72%" y2="-39.29%" gradientUnits="userSpaceOnUse" id="SvgjsLinearGradient2400"><stop stop-color="rgba(154, 201, 248, 1)" offset="0.24"></stop><stop stop-color="rgba(210, 159, 253, 1)" offset="1"></stop></linearGradient></defs></svg>